<?xml version="1.0" encoding="UTF-8" standalone="no"?>
<svg
   xmlns:dc="http://purl.org/dc/elements/1.1/"
   xmlns:cc="http://creativecommons.org/ns#"
   xmlns:rdf="http://www.w3.org/1999/02/22-rdf-syntax-ns#"
   xmlns:svg="http://www.w3.org/2000/svg"
   xmlns="http://www.w3.org/2000/svg"
   xmlns:sodipodi="http://sodipodi.sourceforge.net/DTD/sodipodi-0.dtd"
   xmlns:inkscape="http://www.inkscape.org/namespaces/inkscape"
   width="512"
   height="512"
   viewBox="0 0 512 512"
   id="svg2"
   version="1.1"
   inkscape:version="0.91 r13725"
   sodipodi:docname="eco-server.svg">
  <metadata
     id="metadata10">
    <rdf:RDF>
      <cc:Work
         rdf:about="">
        <dc:format>image/svg+xml</dc:format>
        <dc:type
           rdf:resource="http://purl.org/dc/dcmitype/StillImage" />
        <dc:title></dc:title>
      </cc:Work>
    </rdf:RDF>
  </metadata>
  <defs
     id="defs8" />
  <sodipodi:namedview
     pagecolor="#ffffff"
     bordercolor="#666666"
     borderopacity="1"
     objecttolerance="10"
     gridtolerance="10"
     guidetolerance="10"
     inkscape:pageopacity="0"
     inkscape:pageshadow="2"
     inkscape:window-width="1457"
     inkscape:window-height="897"
     id="namedview6"
     showgrid="false"
     inkscape:zoom="0.921875"
     inkscape:cx="15.140731"
     inkscape:cy="301.37078"
     inkscape:window-x="0"
     inkscape:window-y="27"
     inkscape:window-maximized="0"
     inkscape:current-layer="svg2" />
  <g
     id="g5407"
     transform="matrix(3.2816652,0,0,3.5307024,-260.47446,-358.90329)">
    <path
       sodipodi:nodetypes="ccccccccccssscscsssscssscscscccccccccc"
       d="m 92.418697,232.40375 87.306143,0 0,-12.37306 -87.306143,0 z m 0,-50.17962 87.306143,0 0,-12.71675 -87.306143,0 z m 133.949153,43.99309 c 0,-2.74957 -0.89698,-4.81174 -2.39195,-6.53022 -1.79396,-2.06218 -3.58792,-2.74957 -5.97987,-2.74957 -2.09296,0 -4.18591,0.68739 -5.68088,2.74957 -1.79396,1.71848 -2.39195,3.78065 -2.39195,6.53022 0,2.74957 0.59799,4.81174 2.39195,6.53022 1.49497,2.06218 3.58792,2.74957 5.68088,2.74957 2.39195,0 4.18591,-0.68739 5.97987,-2.74957 1.49497,-1.71848 2.39195,-3.78065 2.39195,-6.53022 z m 0,-50.17961 c 0,-2.74957 -0.89698,-4.81175 -2.39195,-6.87392 -1.79396,-1.71848 -3.58792,-2.74957 -5.97987,-2.74957 -2.09296,0 -4.18591,1.03109 -5.68088,2.74957 -1.79396,2.06217 -2.39195,4.12435 -2.39195,6.87392 0,2.40587 0.59799,4.81174 2.39195,6.53022 1.49497,1.71848 3.58792,2.74957 5.68088,2.74957 2.39195,0 4.18591,-1.03109 5.97987,-2.74957 1.49497,-1.71848 2.39195,-4.12435 2.39195,-6.53022 z m 8.07283,31.27633 0,37.80656 -153.084748,0 0,-37.80656 z m 0,-50.17961 0,37.80656 -153.084748,0 0,-37.80656 z"
       id="path4138"
       inkscape:connector-curvature="0" />
    <path
       inkscape:connector-curvature="0"
       id="path4819"
       d="m 167.5689,108.62807 c 9.27153,-5.38347 22.28158,-7.02842 38.73106,-4.93485 8.67337,1.04679 13.60821,2.39266 15.10362,3.73852 0.14954,0.29908 0.14954,0.59817 -0.14954,0.74771 -3.88806,2.09357 -7.17796,4.93484 -10.01923,8.37428 -2.69173,3.58898 -4.78531,6.87887 -5.98163,10.16877 -1.19633,3.14036 -2.84128,6.5798 -4.93485,10.01923 -2.09357,3.58898 -4.48622,6.28071 -7.17796,8.0752 -7.02841,4.93485 -16.74856,5.08439 -29.16045,0.29908 -3.43944,3.88806 -6.28071,8.37429 -8.8229,13.45868 -0.59817,1.19632 -1.79449,1.4954 -3.58898,0.59816 -1.79449,-0.89725 -2.39266,-1.94403 -1.94403,-2.99082 2.39265,-5.08438 5.68255,-10.01923 10.01923,-14.80453 4.33668,-4.78531 8.8229,-8.67337 13.45867,-11.66418 4.63576,-3.14036 9.12199,-5.83209 13.45867,-8.22475 4.33668,-2.24311 7.92566,-4.0376 10.76694,-5.08438 0,0 4.18714,-1.64495 4.18714,-1.64495 -0.74771,0 -1.79449,0.14954 -3.14036,0.14954 -1.49541,0 -4.0376,0.44862 -8.0752,1.04678 -3.88806,0.74771 -7.62658,1.64495 -11.21556,2.99082 -3.73852,1.19633 -7.77612,3.2899 -12.41188,6.43025 -4.63577,2.99082 -8.82291,6.5798 -12.41189,10.76694 -1.04678,-12.41188 3.2899,-21.53387 13.30913,-27.5155" />
    <path
       inkscape:connector-curvature="0"
       id="path4819-3"
       d="m 138.8867,121.60895 c -7.5958,-3.84348 -18.25443,-5.01788 -31.73084,-3.52319 -7.10575,0.74734 -11.148672,1.70821 -12.373802,2.66908 -0.12251,0.21353 -0.12251,0.42706 0.12251,0.53382 3.18533,1.49468 5.880622,3.52319 8.208362,5.97875 2.20523,2.56232 3.92042,4.91111 4.90051,7.25991 0.98011,2.24203 2.32775,4.69759 4.04294,7.15314 1.71518,2.56232 3.67538,4.48406 5.88062,5.76522 5.7581,3.52319 13.72143,3.62995 23.89001,0.21353 2.81779,2.77584 5.14553,5.97874 7.22825,9.6087 0.49006,0.8541 1.47016,1.06763 2.94031,0.42705 1.47016,-0.64058 1.96021,-1.38792 1.59267,-2.13527 -1.96021,-3.62995 -4.65549,-7.15314 -8.20836,-10.56956 -3.55287,-3.41643 -7.22826,-6.19228 -11.02616,-8.32754 -3.7979,-2.24204 -7.47329,-4.16377 -11.02616,-5.87199 -3.55287,-1.60145 -6.49318,-2.88261 -8.82093,-3.62995 0,0 -3.43036,-1.1744 -3.43036,-1.1744 0.61257,0 1.47016,0.10676 2.57278,0.10676 1.22512,0 3.30784,0.32029 6.61569,0.74734 3.18533,0.53382 6.24815,1.1744 9.18846,2.13527 3.06283,0.85411 6.37067,2.3488 10.16857,4.59083 3.7979,2.13527 7.22826,4.69759 10.16857,7.68696 0.85759,-8.86136 -2.69528,-15.37392 -10.90364,-19.64446" />
  </g>
</svg>
