<svg width="512" height="512" viewBox="0 0 512 512"><path d="m37 402l292 0 0-36-292 0z m0-146l292 0 0-37-292 0z m448 128c0-8-3-14-8-19-6-6-12-8-20-8-7 0-14 2-19 8-6 5-8 11-8 19 0 8 2 14 8 19 5 6 12 8 19 8 8 0 14-2 20-8 5-5 8-11 8-19z m-448-274l292 0 0-37-292 0z m448 128c0-8-3-14-8-20-6-5-12-8-20-8-7 0-14 3-19 8-6 6-8 12-8 20 0 7 2 14 8 19 5 5 12 8 19 8 8 0 14-3 20-8 5-5 8-12 8-19z m0-147c0-7-3-14-8-19-6-5-12-8-20-8-7 0-14 3-19 8-6 5-8 12-8 19 0 8 2 15 8 20 5 5 12 8 19 8 8 0 14-3 20-8 5-5 8-12 8-20z m27 238l0 110-512 0 0-110z m0-146l0 110-512 0 0-110z m0-146l0 109-512 0 0-109z" transform="scale(0.046875 0.046875)"></path></svg>
